<svg xmlns="http://www.w3.org/2000/svg" xml:space="preserve" width="200.12242mm" height="258.49792mm" viewBox="0 0 200.12242 258.49794"><g fill="#3eb4e7" fill-rule="evenodd" clip-rule="evenodd"><path d="M25.229 195.384V49.376H0v146.008z" style="fill:#00ace8;fill-opacity:1" transform="matrix(.28945 0 0 .28945 0 184.388)"/><path d="M202.537 362.008c-9.01 0-15.847 6.837-15.847 15.692s6.992 15.847 15.847 15.847 15.848-6.835 15.848-15.691-6.837-15.848-15.848-15.848m0 24.393c-4.817 0-8.545-3.73-8.545-8.701 0-4.816 3.728-8.544 8.545-8.544s8.545 3.728 8.545 8.544c0 4.815-3.572 8.7-8.545 8.7M237.183 362.008c-9.01 0-16.002 6.837-16.002 15.848s6.991 15.691 15.848 15.691c8.855 0 15.846-6.835 15.846-15.691 0-3.108-.931-5.904-2.485-8.079l2.33-.932v-5.904h-10.408c-1.709-.777-3.419-.933-5.129-.933m0 24.393c-4.817 0-8.545-3.73-8.545-8.701 0-4.816 3.728-8.544 8.545-8.544s8.545 3.728 8.545 8.544c0 4.815-3.882 8.7-8.545 8.7M245.728 394.635c-.154 4.97-3.882 8.547-8.545 8.547-4.817 0-8.545-3.732-8.545-8.547h-7.457c0 9.011 6.991 15.693 15.848 15.693 8.855 0 16.002-6.837 16.002-15.693z" style="fill:#00ace8;fill-opacity:1;stroke-width:.289446" transform="translate(-176.28 -151.83)"/><path d="M275.357 92.322v103.062h25.233V92.322z" style="fill:#00ace8;fill-opacity:1" transform="matrix(.28945 0 0 .28945 0 184.388)"/><path d="M259.867 359.523c2.953 0 5.128-2.176 5.128-4.816-.31-2.952-2.487-5.128-5.128-5.128s-4.817 2.176-4.817 5.128c0 2.64 2.176 4.816 4.817 4.816" style="fill:#00ace8;fill-opacity:1;stroke-width:.289446" transform="translate(-176.28 -151.83)"/><path d="M326.89 92.322h-13.417v22.544h13.417v79.974h25.229v-79.974h14.496V92.322h-14.496V60.653H326.89z" style="fill:#00ace8;fill-opacity:1" transform="matrix(.28945 0 0 .28945 0 184.388)"/><path d="M298.865 362.008c-9.013 0-15.692 6.837-15.692 15.848s6.06 15.38 15.692 15.38c5.126 0 9.943-2.02 13.517-5.592l-5.128-5.129c-2.487 2.487-5.127 3.886-8.234 3.886-4.195 0-7.148-2.485-8.079-6.06h23.148v-1.707c0-9.789-6.37-16.626-15.224-16.626m-8.08 12.74c1.087-3.884 3.883-6.06 7.768-6.06s6.835 2.176 7.612 6.06zM332.267 362.164c-9.01 0-15.847 6.835-15.847 15.692s6.992 15.691 15.847 15.691c5.126 0 9.787-2.487 12.74-5.903l-5.127-5.129c-2.02 2.177-4.661 3.886-7.613 3.886-4.815 0-8.236-3.73-8.236-8.545-.31-4.817 3.575-8.545 8.236-8.545 3.107 0 5.593 1.554 7.613 3.883l5.127-5.128c-2.953-3.728-7.303-5.902-12.74-5.902" style="fill:#00ace8;fill-opacity:1;stroke-width:.289446" transform="translate(-176.28 -151.83)"/><path d="M278.58 151.83c-46.24 0-83.879 37.278-83.879 83.518s37.639 83.514 83.879 83.514v-34.767c-27.243 0-48.753-22.222-48.753-48.747 0-27.245 21.51-48.749 48.752-48.749z" style="fill:#00ace8;fill-opacity:1;stroke-width:.667784" transform="translate(-176.28 -151.83)"/><path d="M887.817 153.513h60.651v60.657H1000V102.518H887.817z" style="fill:#00ace8;fill-opacity:1" transform="matrix(.67321 0 0 .67197 -494.922 -.43)"/><path d="M376.39 375.215c.311-8.234-4.972-13.207-11.964-13.207-3.728 0-6.833 1.243-9.012 3.728v-15.378h-7.3v42.256h7.3v-16.156c0-4.35 2.643-7.147 7.15-7.147 4.194 0 6.524 2.64 6.524 7.147v16.156h7.302z" style="fill:#00ace8;fill-opacity:1;stroke-width:.289446" transform="translate(-176.28 -151.83)"/></g></svg>